<svg xmlns="http://www.w3.org/2000/svg" width="960" height="540" viewBox="0 0 960 540" role="img" aria-labelledby="title desc">
  <title id="title">Step 04 Query Candidate Generation Status</title>
  <desc id="desc">검색 후보 생성 로직 구현 상태 요약</desc>
  <rect width="960" height="540" fill="#f6f7f4"/>
  <rect x="40" y="36" width="880" height="468" rx="8" fill="#ffffff" stroke="#d8dcd3"/>
  <text x="72" y="88" fill="#151515" font-family="Arial, Malgun Gothic, sans-serif" font-size="32" font-weight="700">Step 04 검색 후보 생성</text>
  <text x="72" y="124" fill="#626a72" font-family="Arial, Malgun Gothic, sans-serif" font-size="18">목적별 검색어 후보와 필터, 예상 소스를 함께 생성</text>

  <rect x="72" y="160" width="190" height="104" rx="8" fill="#d9f3ee"/>
  <text x="92" y="196" fill="#0f766e" font-family="Arial, Malgun Gothic, sans-serif" font-size="17" font-weight="700">샘플 후보</text>
  <text x="92" y="244" fill="#0f766e" font-family="Arial, Malgun Gothic, sans-serif" font-size="42" font-weight="700">11</text>

  <rect x="286" y="160" width="190" height="104" rx="8" fill="#dbeafe"/>
  <text x="306" y="196" fill="#1d4ed8" font-family="Arial, Malgun Gothic, sans-serif" font-size="17" font-weight="700">검색 목적</text>
  <text x="306" y="244" fill="#1d4ed8" font-family="Arial, Malgun Gothic, sans-serif" font-size="42" font-weight="700">6</text>

  <rect x="500" y="160" width="190" height="104" rx="8" fill="#fef3c7"/>
  <text x="520" y="196" fill="#92400e" font-family="Arial, Malgun Gothic, sans-serif" font-size="17" font-weight="700">우선순위</text>
  <text x="520" y="244" fill="#92400e" font-family="Arial, Malgun Gothic, sans-serif" font-size="42" font-weight="700">100</text>

  <rect x="714" y="160" width="174" height="104" rx="8" fill="#e2e8f0"/>
  <text x="734" y="196" fill="#334155" font-family="Arial, Malgun Gothic, sans-serif" font-size="17" font-weight="700">테스트</text>
  <text x="734" y="244" fill="#334155" font-family="Arial, Malgun Gothic, sans-serif" font-size="42" font-weight="700">17/17</text>

  <line x1="72" y1="304" x2="888" y2="304" stroke="#d8dcd3"/>
  <text x="72" y="344" fill="#151515" font-family="Arial, Malgun Gothic, sans-serif" font-size="22" font-weight="700">대표 후보</text>
  <text x="72" y="384" fill="#151515" font-family="Arial, Malgun Gothic, sans-serif" font-size="18">1. 남성 블랙 무지 반팔 티셔츠</text>
  <text x="72" y="418" fill="#151515" font-family="Arial, Malgun Gothic, sans-serif" font-size="18">2. 블랙 무지 반팔 티셔츠</text>
  <text x="72" y="452" fill="#151515" font-family="Arial, Malgun Gothic, sans-serif" font-size="18">3. 무지 반팔 티셔츠 리뷰</text>

  <circle cx="842" cy="410" r="30" fill="#0f766e"/>
  <path d="M829 410l9 9 19-22" fill="none" stroke="#ffffff" stroke-width="6" stroke-linecap="round" stroke-linejoin="round"/>
</svg>
